<svg xmlns="http://www.w3.org/2000/svg" viewBox="0 0 800 426"><style>.st0{display:none;} .st1{display:inline;} .st2{fill:#FFFFFF;} .st3{fill:none;stroke:#9882CE;stroke-width:4;stroke-miterlimit:10;} .st4{fill:#FFFFFF;stroke:#404040;stroke-width:4;stroke-linejoin:round;stroke-miterlimit:10;} .st5{fill:#4ED1A1;stroke:#404040;stroke-width:4;stroke-linecap:round;stroke-linejoin:round;stroke-miterlimit:10;} .st6{fill:#B3E3FF;stroke:#404040;stroke-width:4;stroke-miterlimit:10;} .st7{fill:#FFFFFF;stroke:#6693ED;stroke-width:4;stroke-miterlimit:10;} .st8{fill:#FFFFFF;stroke:#404040;stroke-width:4;stroke-miterlimit:10;} .st9{fill:#404040;} .st10{fill:#404040;stroke:#404040;stroke-width:4;stroke-linejoin:round;stroke-miterlimit:10;} .st11{fill:none;stroke:#404040;stroke-width:4;stroke-linecap:round;stroke-linejoin:round;stroke-miterlimit:10;} .st12{fill:#999999;} .st13{fill:#B18BE8;stroke:#404040;stroke-width:4;stroke-linecap:round;stroke-linejoin:round;stroke-miterlimit:10;} .st14{fill:none;stroke:#404040;stroke-width:4;stroke-miterlimit:10;} .st15{fill:#4ED1A1;stroke:#404040;stroke-width:4;stroke-miterlimit:10;} .st16{fill:#B3E3FF;stroke:#404040;stroke-width:4;stroke-linejoin:round;stroke-miterlimit:10;} .st17{fill:#FFFFFF;stroke:#404040;stroke-width:4;stroke-linecap:round;stroke-linejoin:round;stroke-miterlimit:10;} .st18{fill:none;stroke:#CCCCCC;stroke-width:4;stroke-linecap:round;stroke-linejoin:round;stroke-miterlimit:10;} .st19{fill:#FFFFFF;stroke:#CCCCCC;stroke-width:4;stroke-linecap:round;stroke-linejoin:round;stroke-miterlimit:10;} .st20{fill:#59AFE1;stroke:#404040;stroke-width:4;stroke-linejoin:round;stroke-miterlimit:10;} .st21{fill:none;stroke:#CCCCCC;stroke-linecap:round;stroke-linejoin:round;stroke-miterlimit:10;}</style><path class="st12" d="M171.3 14.9v-8.3l-3.6 8.3h-1.3l-3.6-8.3v8.3h-1.5v-10.6h2l3.7 8.7 3.8-8.7h2v10.6h-1.5zm11.5-3.6c0 2.2-1.5 3.8-3.7 3.8s-3.7-1.6-3.7-3.8c0-2.2 1.5-3.8 3.7-3.8s3.7 1.6 3.7 3.8zm-1.4 0c0-1.7-1.1-2.6-2.2-2.6s-2.2.9-2.2 2.6c0 1.7 1 2.6 2.2 2.6s2.2-.9 2.2-2.6zm7 3.6h-1.4l-2.9-7.2h1.6l2.1 5.6 2.1-5.6h1.5l-3 7.2zm5.7-11c.6 0 1 .4 1 1s-.4 1-1 1-1-.5-1-1 .4-1 1-1zm-.7 11v-7.2h1.4v7.2h-1.4zm6 0h-1.4v-7.2h1.4v1c.5-.9 1.4-1.2 2.2-1.2 1.7 0 2.6 1.2 2.6 2.9v4.6h-1.4v-4.3c0-1-.4-1.8-1.7-1.8-1.1 0-1.7.9-1.7 2v4zm8.6.1c.1 1 .9 1.8 2 1.8 1.5 0 2.2-.8 2.2-2.3v-1c-.3.7-1.1 1.2-2.2 1.2-1.9 0-3.3-1.5-3.3-3.5 0-1.9 1.3-3.5 3.3-3.5 1.1 0 1.9.4 2.2 1.1v-1h1.4v6.7c0 1.8-.9 3.6-3.6 3.6-1.8 0-3.1-1.1-3.3-2.7l1.3-.4zm4.2-3.9c0-1.4-.8-2.3-2.1-2.3-1.2 0-2.1.9-2.1 2.3s.8 2.3 2.1 2.3 2.1-.9 2.1-2.3zm10.6-.3l1.9-.3c.4-.1.6-.3.6-.5 0-.7-.5-1.3-1.6-1.3-1 0-1.5.6-1.6 1.5l-1.4-.3c.2-1.4 1.4-2.3 3-2.3 2.2 0 3 1.2 3 2.6v3.6c0 .6.1 1 .1 1.2h-1.4c0-.2-.1-.5-.1-1-.3.5-1 1.2-2.3 1.2-1.5 0-2.4-1-2.4-2.2 0-1.3 1-2 2.2-2.2zm2.5 1v-.3l-2.2.3c-.6.1-1.1.4-1.1 1.1 0 .5.4 1 1.2 1 1.2.1 2.1-.5 2.1-2.1zm12.5-7.6v1.3c-.1 0-.3-.1-.6-.1-.5 0-1.1.2-1.1 1.2v1.2h4.8v7.2h-1.4v-6h-3.5v5.9h-1.5v-5.9h-1.3v-1.3h1.3v-1.2c0-1.6 1.1-2.5 2.4-2.5.5 0 .8.1.9.2zm2.3-.3c.6 0 1 .5 1 1 0 .6-.4 1-1 1s-1-.4-1-1c0-.5.5-1 1-1zm3.9 11v-10.8h1.4v10.9h-1.4zm10.8-2c-.4 1.3-1.6 2.3-3.2 2.3-1.9 0-3.6-1.4-3.6-3.9 0-2.3 1.6-3.8 3.4-3.8 2.2 0 3.5 1.5 3.5 3.8v.4h-5.4c0 1.3 1 2.2 2.2 2.2 1.2 0 1.8-.6 2-1.5l1.1.5zm-1.4-2.3c0-1-.7-1.8-2-1.8-1.2 0-1.9.9-2 1.8h4zm10.4-1.6v5.9h-1.5v-5.9h-1.3v-1.3h1.3v-1.2c0-1.6 1.1-2.5 2.4-2.5.5 0 .8.1.8.2v1.3c-.1 0-.3-.1-.6-.1-.5 0-1.1.2-1.1 1.2v1.1h1.7v1.3h-1.7zm8 .1h-.6c-1.2 0-2 .6-2 2.2v3.6h-1.4v-7.2h1.4v1.3c.5-1.1 1.4-1.4 2.2-1.4h.5v1.5zm9 2.2c0 2.2-1.5 3.8-3.7 3.8s-3.7-1.6-3.7-3.8c0-2.2 1.5-3.8 3.7-3.8s3.7 1.6 3.7 3.8zm-1.5 0c0-1.7-1.1-2.6-2.2-2.6s-2.2.9-2.2 2.6c0 1.7 1 2.6 2.2 2.6s2.2-.9 2.2-2.6zm4 3.6v-7.2h1.3v1c.4-.8 1.4-1.2 2.2-1.2.9 0 1.8.4 2.2 1.4.6-1 1.5-1.4 2.4-1.4 1.3 0 2.5.9 2.5 2.7v4.7h-1.4v-4.5c0-.9-.5-1.6-1.5-1.6s-1.7.8-1.7 1.8v4.4h-1.4v-4.5c0-.9-.4-1.6-1.5-1.6-1 0-1.7.8-1.7 1.8v4.3h-1.4zm20-7.2h1.6v1.3h-1.6v3.8c0 .7.3 1 1 1 .2 0 .4 0 .6-.1v1.2c-.1 0-.5.1-1 .1-1.2 0-2-.8-2-2.1v-3.9h-1.4v-1.3h.4c.8 0 1.1-.5 1.1-1.1v-1.2h1.3v2.3zm5.6 7.2h-1.4v-10.8h1.4v4.5c.5-.8 1.4-1.1 2.2-1.1 1.7 0 2.6 1.2 2.6 2.9v4.6h-1.4v-4.3c0-1-.4-1.8-1.7-1.8-1.1 0-1.6.8-1.7 1.9v4.1zm14.1-2c-.4 1.3-1.6 2.3-3.2 2.3-1.9 0-3.6-1.4-3.6-3.9 0-2.3 1.6-3.8 3.4-3.8 2.2 0 3.5 1.5 3.5 3.8v.4h-5.4c0 1.3 1 2.2 2.2 2.2 1.2 0 1.8-.6 2-1.5l1.1.5zm-1.5-2.3c0-1-.7-1.8-2-1.8-1.2 0-1.9.9-2 1.8h4zm9.4.7c0 1.6 1 2.5 2.2 2.5 1.3 0 1.8-.9 2-1.5l1.2.5c-.3 1-1.4 2.2-3.3 2.2-2.1 0-3.6-1.6-3.6-3.8 0-2.2 1.6-3.8 3.6-3.8 1.9 0 2.9 1.2 3.2 2.3l-1.3.5c-.2-.7-.7-1.5-1.9-1.5-1.1.1-2.1.9-2.1 2.6zm14.6 0c0 2.2-1.5 3.8-3.7 3.8s-3.7-1.6-3.7-3.8c0-2.2 1.5-3.8 3.7-3.8s3.7 1.6 3.7 3.8zm-1.5 0c0-1.7-1.1-2.6-2.2-2.6s-2.2.9-2.2 2.6c0 1.7 1.1 2.6 2.2 2.6s2.2-.9 2.2-2.6zm4 3.6v-7.2h1.3v1c.5-.8 1.4-1.2 2.2-1.2.9 0 1.8.4 2.2 1.4.6-1 1.5-1.4 2.4-1.4 1.3 0 2.5.9 2.5 2.7v4.7h-1.4v-4.5c0-.9-.5-1.6-1.5-1.6s-1.7.8-1.7 1.8v4.4h-1.4v-4.5c0-.9-.4-1.6-1.5-1.6-1 0-1.7.8-1.7 1.8v4.3h-1.4zm13.6 0v-7.2h1.3v1c.5-.8 1.4-1.2 2.2-1.2.9 0 1.8.4 2.2 1.4.6-1 1.5-1.4 2.4-1.4 1.3 0 2.5.9 2.5 2.7v4.7h-1.4v-4.5c0-.9-.5-1.6-1.5-1.6s-1.7.8-1.7 1.8v4.4h-1.4v-4.5c0-.9-.4-1.6-1.5-1.6-1 0-1.7.8-1.7 1.8v4.3h-1.4zm14.3-11c.6 0 1 .4 1 1s-.4 1-1 1-1-.5-1-1 .4-1 1-1zm-.7 11v-7.2h1.4v7.2h-1.4zm6.4-7.2h1.6v1.3h-1.6v3.8c0 .7.3 1 1 1 .2 0 .4 0 .6-.1v1.2c-.1 0-.5.1-1 .1-1.2 0-2-.8-2-2.1v-3.9h-1.4v-1.3h.4c.8 0 1.1-.5 1.1-1.1v-1.2h1.3v2.3zm10.1 7.2h-1.4v-10.8h1.4v4.5c.5-.8 1.4-1.1 2.2-1.1 1.7 0 2.6 1.2 2.6 2.9v4.6h-1.4v-4.3c0-1-.4-1.8-1.7-1.8-1.1 0-1.6.8-1.7 1.9v4.1zm8.5-11c.6 0 1 .4 1 1s-.4 1-1 1-1-.5-1-1 .4-1 1-1zm-.7 11v-7.2h1.4v7.2h-1.4zm5.2-2.3c.1.8.7 1.3 1.7 1.3.8 0 1.2-.4 1.2-1 0-.4-.3-.8-.9-.9l-1.2-.3c-1.1-.2-1.8-1-1.8-2 0-1.2 1.2-2.3 2.6-2.3 2 0 2.6 1.3 2.7 1.9l-1.2.5c-.1-.4-.4-1.2-1.5-1.2-.7 0-1.2.5-1.2 1 0 .4.3.8.8.9l1.2.3c1.3.3 2 1.1 2 2.1s-.9 2.2-2.6 2.2c-2 0-2.8-1.3-2.9-2.1l1.1-.4zm8.8-4.9h1.6v1.3h-1.6v3.8c0 .7.3 1 1 1 .2 0 .4 0 .6-.1v1.2c-.1 0-.5.1-1 .1-1.2 0-2-.8-2-2.1v-3.9h-1.4v-1.3h.4c.8 0 1.1-.5 1.1-1.1v-1.2h1.3v2.3zm10.9 3.6c0 2.2-1.5 3.8-3.7 3.8s-3.7-1.6-3.7-3.8c0-2.2 1.5-3.8 3.7-3.8s3.7 1.6 3.7 3.8zm-1.5 0c0-1.7-1.1-2.6-2.2-2.6s-2.2.9-2.2 2.6c0 1.7 1 2.6 2.2 2.6s2.2-.9 2.2-2.6zm8-2.2h-.6c-1.2 0-2 .6-2 2.2v3.6h-1.4v-7.2h1.4v1.3c.5-1.1 1.4-1.4 2.2-1.4h.5v1.5zm2.8 8.8l1.8-3.8-3.1-6.4h1.6l2.2 5 2.2-5h1.5l-4.7 10.2h-1.5zm13.5-14c.6 0 1 .4 1 1s-.4 1-1 1-1-.5-1-1 .4-1 1-1zm-.7 11v-7.2h1.4v7.2h-1.4zm5.9 0h-1.4v-7.2h1.4v1c.5-.9 1.4-1.2 2.2-1.2 1.7 0 2.6 1.2 2.6 2.9v4.6h-1.4v-4.3c0-1-.4-1.8-1.7-1.8-1.1 0-1.7.9-1.7 2v4zm9.7-7.2h1.6v1.3h-1.6v3.8c0 .7.3 1 1 1 .2 0 .4 0 .6-.1v1.2c-.1 0-.5.1-1 .1-1.2 0-2-.8-2-2.1v-3.9h-1.4v-1.3h.4c.8 0 1.1-.5 1.1-1.1v-1.2h1.3v2.3zm10.9 3.6c0 2.2-1.5 3.8-3.7 3.8s-3.7-1.6-3.7-3.8c0-2.2 1.5-3.8 3.7-3.8s3.7 1.6 3.7 3.8zm-1.4 0c0-1.7-1.1-2.6-2.2-2.6s-2.2.9-2.2 2.6c0 1.7 1.1 2.6 2.2 2.6s2.2-.9 2.2-2.6zm10.3-3.6h1.6v1.3h-1.6v3.8c0 .7.3 1 1 1 .2 0 .4 0 .6-.1v1.2c-.1 0-.5.1-1 .1-1.2 0-2-.8-2-2.1v-3.9h-1.4v-1.3h.4c.8 0 1.1-.5 1.1-1.1v-1.2h1.3v2.3zm5.6 7.2h-1.4v-10.8h1.4v4.5c.5-.8 1.4-1.1 2.2-1.1 1.7 0 2.6 1.2 2.6 2.9v4.6h-1.4v-4.3c0-1-.4-1.8-1.7-1.8-1.1 0-1.6.8-1.7 1.9v4.1zm14.1-2c-.4 1.3-1.6 2.3-3.2 2.3-1.9 0-3.6-1.4-3.6-3.9 0-2.3 1.6-3.8 3.4-3.8 2.2 0 3.5 1.5 3.5 3.8v.4h-5.4c0 1.3 1 2.2 2.2 2.2 1.2 0 1.8-.6 2-1.5l1.1.5zm-1.4-2.3c0-1-.7-1.8-2-1.8-1.2 0-1.9.9-2 1.8h4zm14-2.9l1.9 5.4 1.6-5.4h1.5l-2.3 7.2h-1.5l-1.9-5.5-1.9 5.5h-1.5l-2.4-7.2h1.5l1.6 5.4 1.9-5.4h1.5zm13.8 3.6c0 2.2-1.5 3.8-3.7 3.8s-3.7-1.6-3.7-3.8c0-2.2 1.5-3.8 3.7-3.8s3.7 1.6 3.7 3.8zm-1.5 0c0-1.7-1.1-2.6-2.2-2.6s-2.2.9-2.2 2.6c0 1.7 1 2.6 2.2 2.6s2.2-.9 2.2-2.6zm8-2.2h-.6c-1.2 0-2 .6-2 2.2v3.6h-1.4v-7.2h1.4v1.3c.5-1.1 1.4-1.4 2.2-1.4h.5v1.5zm5.7 1.6l3.1 4.2h-1.8l-2.4-3.2-1 1v2.2h-1.4v-10.8h1.4v6.8l3.1-3.2h1.9l-2.9 3zm5.9-6.8c.6 0 1 .4 1 1s-.4 1-1 1-1-.5-1-1 .4-1 1-1zm-.7 11v-7.2h1.4v7.2h-1.4zm5.9 0h-1.4v-7.2h1.4v1c.5-.9 1.4-1.2 2.2-1.2 1.7 0 2.6 1.2 2.6 2.9v4.6h-1.4v-4.3c0-1-.4-1.8-1.7-1.8-1.1 0-1.7.9-1.7 2v4zm8.7.1c.1 1 .9 1.8 2 1.8 1.5 0 2.2-.8 2.2-2.3v-1c-.3.7-1.1 1.2-2.2 1.2-1.9 0-3.3-1.5-3.3-3.5 0-1.9 1.3-3.5 3.3-3.5 1.1 0 1.9.4 2.2 1.1v-1h1.4v6.7c0 1.8-.9 3.6-3.6 3.6-1.8 0-3.1-1.1-3.3-2.7l1.3-.4zm4.2-3.9c0-1.4-.8-2.3-2.1-2.3-1.2 0-2.1.9-2.1 2.3s.8 2.3 2.1 2.3c1.2 0 2.1-.9 2.1-2.3zm13.9 2.7c-.3.7-1.1 1.3-2.2 1.3-2.1 0-3.4-1.7-3.4-3.8 0-2 1.4-3.8 3.4-3.8 1.3 0 2 .6 2.2 1.2v-4.6h1.4v9.5c0 .7.1 1.2.1 1.3h-1.4c0-.2-.1-.5-.1-1v-.1zm-2.1.1c1.3 0 2.1-1.1 2.1-2.6s-.8-2.5-2.1-2.5-2.1 1-2.1 2.5.7 2.6 2.1 2.6zm7.3-10c.6 0 1 .4 1 1s-.4 1-1 1-1-.5-1-1 .4-1 1-1zm-.7 11v-7.2h1.4v7.2h-1.4zm8.6-5.8h-.6c-1.2 0-2 .6-2 2.2v3.6h-1.4v-7.2h1.4v1.3c.5-1.1 1.4-1.4 2.2-1.4h.5v1.5zm8.4 3.8c-.4 1.3-1.6 2.3-3.2 2.3-1.9 0-3.6-1.4-3.6-3.9 0-2.3 1.6-3.8 3.4-3.8 2.2 0 3.5 1.5 3.5 3.8v.4h-5.4c0 1.3 1 2.2 2.2 2.2 1.2 0 1.8-.6 2-1.5l1.1.5zm-1.4-2.3c0-1-.7-1.8-2-1.8-1.2 0-1.9.9-2 1.8h4zm4.8.7c0 1.6 1 2.5 2.2 2.5 1.3 0 1.8-.9 2-1.5l1.2.5c-.3 1-1.4 2.2-3.3 2.2-2.1 0-3.6-1.6-3.6-3.8 0-2.2 1.6-3.8 3.6-3.8 1.9 0 2.9 1.2 3.2 2.3l-1.3.5c-.2-.7-.7-1.5-1.9-1.5-1 .1-2.1.9-2.1 2.6zm9.8-3.6h1.6v1.3h-1.6v3.8c0 .7.3 1 1 1 .2 0 .4 0 .6-.1v1.2c-.1 0-.5.1-1 .1-1.2 0-2-.8-2-2.1v-3.9h-1.4v-1.3h.4c.8 0 1.1-.5 1.1-1.1v-1.2h1.3v2.3zm10.9 3.6c0 2.2-1.5 3.8-3.7 3.8s-3.7-1.6-3.7-3.8c0-2.2 1.5-3.8 3.7-3.8s3.7 1.6 3.7 3.8zm-1.5 0c0-1.7-1.1-2.6-2.2-2.6s-2.2.9-2.2 2.6c0 1.7 1 2.6 2.2 2.6s2.2-.9 2.2-2.6zm8-2.2h-.6c-1.2 0-2 .6-2 2.2v3.6h-1.4v-7.2h1.4v1.3c.5-1.1 1.4-1.4 2.2-1.4h.5v1.5zm2.8 8.8l1.8-3.8-3.1-6.4h1.6l2.2 5 2.2-5h1.5l-4.7 10.2h-1.5z"/><path class="st11" d="M296.1 160.9l-15.1 2.5-2.5-15.2"/><path class="st4" d="M263.8 183.6v35.2h36.3v77.2h-85.4v-112.4h49.1"/><path class="st13" d="M263.8 183.6l36.3 35.2h-36.3z"/><path class="st4" d="M237.3 208.8v35.2h36.3v77.2h-85.4v-112.4h49.1"/><path class="st13" d="M237.3 208.8l36.3 35.2h-36.3z"/><path class="st4" d="M210.8 234v35.2h36.3v77.2h-85.4v-112.4h49.1"/><path class="st13" d="M210.8 234l36.3 35.2h-36.3z"/><path class="st4" d="M543.6 171.5h94.7v187h-94.7z"/><path class="st14" d="M590.9 215v100.1"/><circle class="st6" cx="590.9" cy="315.1" r="18"/><circle class="st6" cx="590.9" cy="265" r="18"/><circle class="st6" cx="590.9" cy="215" r="18"/><circle class="st20" cx="417.9" cy="265" r="30"/><path class="st9" d="M211.3 391.3h1.5l-3 10.6h-1.5l-2.8-8.6-2.7 8.6h-1.5l-3.1-10.6h1.5l2.3 8.3 2.7-8.3h1.5l2.7 8.4 2.4-8.4zm9.9 7c0 2.2-1.5 3.8-3.7 3.8s-3.7-1.6-3.7-3.8c0-2.2 1.5-3.8 3.7-3.8s3.7 1.6 3.7 3.8zm-1.4 0c0-1.7-1.1-2.6-2.2-2.6s-2.2.9-2.2 2.6c0 1.7 1.1 2.6 2.2 2.6s2.2-.9 2.2-2.6zm8-2.1h-.6c-1.2 0-2 .6-2 2.2v3.6h-1.4v-7.2h1.4v1.3c.5-1.1 1.4-1.4 2.2-1.4h.5v1.5zm5.6 1.6l3.1 4.2h-1.8l-2.4-3.2-1 1v2.2h-1.3v-10.9h1.4v6.8l3.1-3.2h1.9l-3 3.1zm6-6.8c.6 0 1 .4 1 1s-.4 1-1 1-1-.5-1-1c0-.6.4-1 1-1zm-.7 11v-7.2h1.4v7.2h-1.4zm5.9 0h-1.4v-7.2h1.4v1c.5-.9 1.4-1.2 2.2-1.2 1.7 0 2.6 1.2 2.6 2.9v4.6h-1.4v-4.3c0-1-.4-1.8-1.7-1.8-1.1 0-1.7.9-1.7 2v4zm8.6 0c.1 1 .9 1.8 2 1.8 1.5 0 2.2-.8 2.2-2.3v-1c-.3.7-1.1 1.2-2.2 1.2-1.9 0-3.3-1.5-3.3-3.5 0-1.9 1.3-3.5 3.3-3.5 1.1 0 1.9.4 2.2 1.1v-1h1.4v6.7c0 1.8-.9 3.6-3.6 3.6-1.8 0-3.1-1.1-3.3-2.7l1.3-.4zm4.3-3.9c0-1.4-.8-2.3-2.1-2.3-1.2 0-2.1.9-2.1 2.3s.8 2.3 2.1 2.3c1.2 0 2.1-.9 2.1-2.3zm-62 21.9v-10.6h3.7c2.7 0 5.1 1.8 5.1 5.3s-2.4 5.3-5.1 5.3h-3.7zm3.7-1.4c2 0 3.6-1.3 3.6-4s-1.6-4-3.6-4h-2.2v8h2.2zm8.4-9.6c.6 0 1 .4 1 1s-.4 1-1 1-1-.5-1-1c0-.6.4-1 1-1zm-.7 11v-7.2h1.4v7.2h-1.4zm8.6-5.8h-.6c-1.2 0-2 .6-2 2.2v3.6h-1.4v-7.2h1.4v1.3c.5-1.1 1.4-1.4 2.2-1.4h.5v1.5zm8.4 3.7c-.4 1.3-1.6 2.3-3.2 2.3-1.9 0-3.6-1.4-3.6-3.9 0-2.3 1.6-3.8 3.4-3.8 2.2 0 3.5 1.5 3.5 3.8v.4h-5.4c0 1.3 1 2.2 2.2 2.2 1.2 0 1.8-.6 2-1.5l1.1.5zm-1.4-2.3c0-1-.7-1.8-2-1.8-1.2 0-1.9.9-2 1.8h4zm4.9.7c0 1.6 1 2.5 2.2 2.5 1.3 0 1.8-.9 2-1.5l1.2.5c-.3 1-1.4 2.2-3.3 2.2-2.1 0-3.6-1.6-3.6-3.8 0-2.2 1.6-3.8 3.6-3.8 1.9 0 2.9 1.2 3.2 2.3l-1.3.5c-.2-.7-.7-1.5-1.9-1.5-1.1.1-2.1 1-2.1 2.6zm9.7-3.6h1.6v1.3h-1.6v3.8c0 .7.3 1 1 1 .2 0 .4 0 .6-.1v1.2c-.1 0-.5.1-1 .1-1.2 0-2-.8-2-2.1v-4h-1.4v-1.3h.4c.8 0 1.1-.5 1.1-1.1v-1.2h1.3v2.4zm10.9 3.6c0 2.2-1.5 3.8-3.7 3.8s-3.7-1.6-3.7-3.8c0-2.2 1.5-3.8 3.7-3.8s3.7 1.6 3.7 3.8zm-1.4 0c0-1.7-1.1-2.6-2.2-2.6s-2.2.9-2.2 2.6c0 1.7 1 2.6 2.2 2.6s2.2-.9 2.2-2.6zm8-2.1h-.6c-1.2 0-2 .6-2 2.2v3.6h-1.4v-7.2h1.4v1.3c.5-1.1 1.4-1.4 2.2-1.4h.5v1.5zm2.7 8.8l1.8-3.8-3.1-6.4h1.6l2.2 5 2.2-5h1.5l-4.7 10.2h-1.5zm141.7-28.8c-.1-.8-.8-1.8-2.2-1.8-1.2 0-2.1.8-2.1 1.8 0 .8.5 1.4 1.4 1.5l1.6.3c1.8.4 2.8 1.5 2.8 3 0 1.6-1.4 3.1-3.7 3.1-2.6 0-3.8-1.6-4-3.2l1.4-.4c.1 1.2.9 2.3 2.5 2.3 1.5 0 2.2-.8 2.2-1.7 0-.8-.5-1.4-1.6-1.6l-1.5-.3c-1.5-.3-2.6-1.3-2.6-2.9 0-1.7 1.5-3.2 3.5-3.2 2.4 0 3.4 1.5 3.6 2.6l-1.3.5zm5.8.5h1.6v1.3h-1.6v3.8c0 .7.3 1 1 1 .2 0 .4 0 .6-.1v1.2c-.1 0-.5.1-1 .1-1.2 0-2-.8-2-2.1v-4h-1.4v-1.3h.4c.8 0 1.1-.5 1.1-1.1v-1.2h1.3v2.4zm5.9 3.1l1.9-.3c.4-.1.6-.3.6-.5 0-.7-.5-1.3-1.6-1.3-1 0-1.5.6-1.6 1.5l-1.4-.3c.2-1.4 1.4-2.3 3-2.3 2.2 0 3 1.2 3 2.6v3.6c0 .6.1 1 .1 1.2h-1.4c0-.2-.1-.5-.1-1-.3.5-1 1.2-2.3 1.2-1.5 0-2.4-1-2.4-2.2.1-1.3 1-2 2.2-2.2zm2.6 1.1v-.3l-2.2.3c-.6.1-1 .4-1 1.1 0 .5.4 1 1.2 1 1 0 2-.6 2-2.1zm5.1 3.1c.1 1 .9 1.8 2 1.8 1.5 0 2.2-.8 2.2-2.3v-1c-.3.7-1.1 1.2-2.2 1.2-1.9 0-3.3-1.5-3.3-3.5 0-1.9 1.3-3.5 3.3-3.5 1.1 0 1.9.4 2.2 1.1v-1h1.4v6.7c0 1.8-.9 3.6-3.6 3.6-1.8 0-3.1-1.1-3.3-2.7l1.3-.4zm4.3-3.9c0-1.4-.8-2.3-2.1-2.3-1.2 0-2.1.9-2.1 2.3s.8 2.3 2.1 2.3c1.2 0 2.1-.9 2.1-2.3zm10.6 1.8c-.4 1.3-1.6 2.3-3.2 2.3-1.9 0-3.6-1.4-3.6-3.9 0-2.3 1.6-3.8 3.4-3.8 2.2 0 3.5 1.5 3.5 3.8v.4h-5.4c0 1.3 1 2.2 2.2 2.2 1.2 0 1.8-.6 2-1.5l1.1.5zm-1.4-2.3c0-1-.7-1.8-2-1.8-1.2 0-1.9.9-2 1.8h4zm9.1 3.3c-.3.7-1.1 1.3-2.2 1.3-2.1 0-3.4-1.7-3.4-3.8 0-2 1.4-3.8 3.4-3.8 1.3 0 2 .6 2.2 1.2v-4.7h1.4v9.5c0 .7.1 1.2.1 1.3h-1.5c0-.2-.1-.5-.1-1zm-2.1 0c1.3 0 2.1-1.1 2.1-2.6s-.8-2.5-2.1-2.5-2.1 1-2.1 2.5.7 2.6 2.1 2.6zm-48.2 11.3c-.1-.8-.8-1.8-2.2-1.8-1.2 0-2.1.8-2.1 1.8 0 .8.5 1.4 1.4 1.5l1.6.3c1.8.4 2.8 1.5 2.8 3 0 1.6-1.4 3.1-3.7 3.1-2.6 0-3.8-1.6-4-3.2l1.4-.4c.1 1.2.9 2.3 2.5 2.3 1.5 0 2.2-.8 2.2-1.7 0-.8-.5-1.4-1.6-1.6l-1.5-.3c-1.5-.3-2.6-1.3-2.6-2.9 0-1.7 1.5-3.2 3.5-3.2 2.4 0 3.4 1.5 3.6 2.6l-1.3.5zm5 7.8h-1.4v-7.2h1.4v1c.5-.9 1.4-1.2 2.2-1.2 1.7 0 2.6 1.2 2.6 2.9v4.6h-1.4v-4.3c0-1-.4-1.8-1.7-1.8-1.1 0-1.7.9-1.7 2v4zm9.5-4.2l1.9-.3c.4-.1.6-.3.6-.5 0-.7-.5-1.3-1.6-1.3-1 0-1.5.6-1.6 1.5l-1.4-.3c.2-1.4 1.4-2.3 3-2.3 2.2 0 3 1.2 3 2.6v3.6c0 .6.1 1 .1 1.2h-1.4c0-.2-.1-.5-.1-1-.3.5-1 1.2-2.3 1.2-1.5 0-2.4-1-2.4-2.2.1-1.3 1-2 2.2-2.2zm2.5 1.1v-.3l-2.2.3c-.6.1-1.1.4-1.1 1.1 0 .5.4 1 1.2 1 1.2 0 2.1-.6 2.1-2.1zm4.4 5.9v-10.1h1.4v1.1c.4-.7 1.2-1.3 2.4-1.3 2.2 0 3.3 1.7 3.3 3.8 0 2.1-1.2 3.8-3.4 3.8-1.1 0-1.9-.5-2.3-1.2v3.8h-1.4zm3.5-9c-1.3 0-2.1 1.1-2.1 2.5 0 1.5.9 2.5 2.1 2.5 1.3 0 2.1-1.1 2.1-2.5.1-1.4-.8-2.5-2.1-2.5zm6.7 3.8c.1.8.7 1.3 1.7 1.3.8 0 1.2-.4 1.2-1 0-.4-.3-.8-.9-.9l-1.2-.3c-1.1-.2-1.8-1-1.8-2 0-1.2 1.2-2.3 2.6-2.3 2 0 2.6 1.3 2.7 1.9l-1.2.5c-.1-.4-.4-1.2-1.5-1.2-.7 0-1.2.5-1.2 1 0 .4.3.8.8.9l1.2.3c1.3.3 2 1.1 2 2.1s-.9 2.2-2.6 2.2c-2 0-2.8-1.3-2.9-2.1l1.1-.4zm8.4 2.4h-1.4v-10.9h1.4v4.5c.5-.8 1.4-1.1 2.2-1.1 1.7 0 2.6 1.2 2.6 2.9v4.6h-1.5v-4.3c0-1-.4-1.8-1.7-1.8-1.1 0-1.6.8-1.7 1.9v4.2zm14.5-3.7c0 2.2-1.5 3.8-3.7 3.8s-3.7-1.6-3.7-3.8c0-2.2 1.5-3.8 3.7-3.8s3.7 1.6 3.7 3.8zm-1.4 0c0-1.7-1.1-2.6-2.2-2.6s-2.2.9-2.2 2.6c0 1.7 1.1 2.6 2.2 2.6s2.2-.9 2.2-2.6zm5.8-3.6h1.6v1.3h-1.6v3.8c0 .7.3 1 1 1 .2 0 .4 0 .6-.1v1.2c-.1 0-.5.1-1 .1-1.2 0-2-.8-2-2.1v-4h-1.4v-1.3h.4c.8 0 1.1-.5 1.1-1.1v-1.2h1.3v2.4zm112.9-16.1c0-3.6 2.6-5.5 5.3-5.5 2.4 0 4.1 1.3 4.7 3.4l-1.4.5c-.4-1.6-1.6-2.5-3.3-2.5-1.9 0-3.8 1.4-3.8 4.2s1.8 4.2 3.8 4.2c1.8 0 3-1.1 3.4-2.5l1.3.5c-.6 2-2.2 3.4-4.7 3.4-2.7-.1-5.3-2.1-5.3-5.7zm19.1 1.7c0 2.2-1.5 3.8-3.7 3.8s-3.7-1.6-3.7-3.8c0-2.2 1.5-3.8 3.7-3.8s3.7 1.6 3.7 3.8zm-1.5 0c0-1.7-1.1-2.6-2.2-2.6s-2.2.9-2.2 2.6c0 1.7 1.1 2.6 2.2 2.6s2.2-.9 2.2-2.6zm4 3.7v-7.2h1.3v1c.5-.8 1.4-1.2 2.2-1.2.9 0 1.8.4 2.2 1.4.6-1 1.5-1.4 2.4-1.4 1.3 0 2.5.9 2.5 2.7v4.7h-1.4v-4.5c0-.9-.5-1.6-1.5-1.6s-1.7.8-1.7 1.8v4.4h-1.4v-4.5c0-.9-.4-1.6-1.5-1.6-1 0-1.7.8-1.7 1.8v4.3h-1.4zm13.6 0v-7.2h1.3v1c.5-.8 1.4-1.2 2.2-1.2.9 0 1.8.4 2.2 1.4.6-1 1.5-1.4 2.4-1.4 1.3 0 2.5.9 2.5 2.7v4.7h-1.4v-4.5c0-.9-.5-1.6-1.5-1.6s-1.7.8-1.7 1.8v4.4h-1.4v-4.5c0-.9-.4-1.6-1.5-1.6-1 0-1.7.8-1.7 1.8v4.3h-1.4zm14.3-11c.6 0 1 .4 1 1s-.4 1-1 1-1-.5-1-1c0-.6.4-1 1-1zm-.7 11v-7.2h1.4v7.2h-1.4zm6.4-7.3h1.6v1.3h-1.6v3.8c0 .7.3 1 1 1 .2 0 .4 0 .6-.1v1.2c-.1 0-.5.1-1 .1-1.2 0-2-.8-2-2.1v-4h-1.3v-1.3h.4c.8 0 1.1-.5 1.1-1.1v-1.2h1.3v2.4zm-45.3 25.3v-4.7h-5.4v4.7h-1.5v-10.6h1.5v4.5h5.4v-4.5h1.5v10.6h-1.5zm5.5-11c.6 0 1 .4 1 1s-.4 1-1 1-1-.5-1-1c0-.6.4-1 1-1zm-.7 11v-7.2h1.4v7.2h-1.4zm5.1-2.4c.1.8.7 1.3 1.7 1.3.8 0 1.2-.4 1.2-1 0-.4-.3-.8-.9-.9l-1.2-.3c-1.1-.2-1.8-1-1.8-2 0-1.2 1.2-2.3 2.6-2.3 2 0 2.6 1.3 2.7 1.9l-1.2.5c-.1-.4-.4-1.2-1.5-1.2-.7 0-1.2.5-1.2 1 0 .4.3.8.8.9l1.2.3c1.3.3 2 1.1 2 2.1s-.9 2.2-2.6 2.2c-2 0-2.8-1.3-2.9-2.1l1.1-.4zm8.8-4.9h1.6v1.3h-1.6v3.8c0 .7.3 1 1 1 .2 0 .4 0 .6-.1v1.2c-.1 0-.5.1-1 .1-1.2 0-2-.8-2-2.1v-4h-1.4v-1.3h.4c.8 0 1.1-.5 1.1-1.1v-1.2h1.3v2.4zm10.9 3.6c0 2.2-1.5 3.8-3.7 3.8s-3.7-1.6-3.7-3.8c0-2.2 1.5-3.8 3.7-3.8s3.7 1.6 3.7 3.8zm-1.4 0c0-1.7-1.1-2.6-2.2-2.6s-2.2.9-2.2 2.6c0 1.7 1 2.6 2.2 2.6s2.2-.9 2.2-2.6zm8-2.1h-.6c-1.2 0-2 .6-2 2.2v3.6h-1.4v-7.2h1.4v1.3c.5-1.1 1.4-1.4 2.2-1.4h.5v1.5zm2.7 8.8l1.8-3.8-3.1-6.4h1.6l2.2 5 2.2-5h1.5l-4.7 10.2h-1.5zm-228.1-302.8c0-3.6 2.6-5.5 5.3-5.5 2.4 0 4.1 1.3 4.7 3.4l-1.4.5c-.4-1.6-1.6-2.5-3.3-2.5-1.9 0-3.8 1.4-3.8 4.2 0 2.8 1.8 4.2 3.8 4.2 1.8 0 3-1.1 3.4-2.5l1.3.5c-.6 2-2.2 3.4-4.7 3.4-2.7-.1-5.3-2.1-5.3-5.7zm13.8 5.3h-1.4v-10.9h1.4v4.5c.5-.8 1.4-1 2.2-1 1.7 0 2.6 1.2 2.6 2.8v4.6h-1.4v-4.3c0-1-.4-1.8-1.7-1.8-1.1 0-1.6.8-1.7 1.9v4.2zm14.1-2c-.4 1.3-1.6 2.3-3.2 2.3-1.9 0-3.6-1.4-3.6-3.9 0-2.3 1.6-3.8 3.4-3.8 2.2 0 3.5 1.5 3.5 3.8v.5h-5.4c0 1.3 1 2.2 2.2 2.2 1.2 0 1.8-.6 2-1.5l1.1.4zm-1.5-2.3c0-1-.7-1.8-2-1.8-1.2 0-1.9.9-2 1.8h4zm4.9.7c0 1.7 1 2.5 2.2 2.5 1.3 0 1.8-.9 2-1.5l1.2.5c-.3 1-1.4 2.2-3.3 2.2-2.1 0-3.6-1.6-3.6-3.8 0-2.2 1.6-3.8 3.6-3.8 1.9 0 2.9 1.2 3.2 2.3l-1.3.5c-.2-.7-.7-1.5-1.9-1.5-1.1.1-2.1.9-2.1 2.6zm11.2-.5l3.1 4.2h-1.8l-2.4-3.2-1 1v2.2h-1.4v-10.9h1.4v6.8l3.1-3.2h1.9l-2.9 3.1zm11.7.5c0 2.2-1.5 3.8-3.7 3.8s-3.7-1.6-3.7-3.8c0-2.2 1.5-3.8 3.7-3.8s3.7 1.6 3.7 3.8zm-1.5 0c0-1.7-1.1-2.6-2.2-2.6s-2.2.9-2.2 2.6c0 1.7 1 2.6 2.2 2.6s2.2-.9 2.2-2.6zm6.6 3.9c-1.7 0-2.7-1.3-2.7-2.9v-4.5h1.4v4.3c0 1 .4 1.9 1.6 1.9 1.1 0 1.7-.8 1.7-1.8v-4.3h1.4v5.9c0 .6 0 1.1.1 1.3h-1.4c0-.2-.1-.6-.1-.9-.3.6-1.2 1-2 1zm8.5-7.5h1.6v1.3h-1.6v3.8c0 .7.3 1 1 1 .2 0 .4 0 .6-.1v1.2c-.1 0-.5.1-1 .1-1.2 0-2-.8-2-2.1v-4h-1.4v-1.3h.4c.8 0 1.1-.5 1.1-1.1v-1.1h1.3v2.3zm-83.3 13.3l.9.8c-1.5 1.7-2.5 3.8-2.5 6.4s1 4.7 2.5 6.4l-.9.8c-1.6-1.6-2.8-3.9-2.8-7.2 0-3.3 1.2-5.5 2.8-7.2zm8 4.7l1.9 5.4 1.6-5.4h1.5l-2.3 7.2h-1.5l-1.9-5.5-1.9 5.5h-1.5l-2.4-7.2h1.5l1.6 5.4 1.9-5.4h1.5zm7.8-3.7c.6 0 1 .5 1 1 0 .6-.4 1-1 1s-1-.5-1-1c0-.6.5-1 1-1zm-.6 10.9v-7.2h1.4v7.2h-1.4zm6.4-7.2h1.6v1.3h-1.6v3.8c0 .7.3 1 1 1 .2 0 .4 0 .6-.1v1.2c-.1 0-.5.1-1 .1-1.2 0-2-.8-2-2.1v-4h-1.4v-1.3h.4c.8 0 1.1-.5 1.1-1.1v-1.1h1.3v2.3zm5.6 7.2h-1.4v-10.9h1.4v4.5c.5-.8 1.4-1 2.2-1 1.7 0 2.6 1.2 2.6 2.8v4.6h-1.4v-4.3c0-1-.4-1.8-1.7-1.8-1.1 0-1.6.8-1.7 1.9v4.2zm15.9-10.7v1.3c-.1 0-.3-.1-.6-.1-.5 0-1.1.2-1.1 1.2v1.2h4.8v7.2h-1.4v-5.9h-3.5v5.9h-1.5v-5.9h-1.3v-1.3h1.3v-1.2c0-1.6 1.1-2.5 2.4-2.5.5-.1.8 0 .9.1zm2.3-.3c.6 0 1 .5 1 1 0 .6-.4 1-1 1s-1-.5-1-1 .5-1 1-1zm3.9 11v-10.9h1.4v10.9h-1.4zm10.8-2c-.4 1.3-1.6 2.3-3.2 2.3-1.9 0-3.6-1.4-3.6-3.9 0-2.3 1.6-3.8 3.4-3.8 2.2 0 3.5 1.5 3.5 3.8v.5h-5.4c0 1.3 1 2.2 2.2 2.2 1.2 0 1.8-.6 2-1.5l1.1.4zm-1.4-2.3c0-1-.7-1.8-2-1.8-1.2 0-1.9.9-2 1.8h4zm8.5 7.2v-10.1h1.4v1.1c.4-.7 1.2-1.3 2.4-1.3 2.2 0 3.3 1.7 3.3 3.8 0 2.1-1.2 3.8-3.4 3.8-1.1 0-1.9-.5-2.3-1.2v3.8h-1.4zm3.5-9c-1.3 0-2.1 1.1-2.1 2.5 0 1.5.9 2.5 2.1 2.5 1.3 0 2.1-1.1 2.1-2.5.1-1.4-.7-2.5-2.1-2.5zm7.9 2l1.9-.3c.4-.1.6-.3.6-.5 0-.7-.5-1.3-1.6-1.3-1 0-1.5.6-1.6 1.5l-1.4-.3c.2-1.4 1.4-2.3 3-2.3 2.2 0 3 1.2 3 2.6v3.6c0 .6.1 1 .1 1.2h-1.4c0-.2-.1-.5-.1-1-.3.5-1 1.2-2.3 1.2-1.5 0-2.4-1-2.4-2.2 0-1.3.9-2 2.2-2.2zm2.5 1v-.3l-2.2.3c-.6.1-1.1.4-1.1 1.1 0 .5.4 1 1.2 1 1.2.1 2.1-.5 2.1-2.1zm6.2-4.1h1.6v1.3h-1.6v3.8c0 .7.3 1 1 1 .2 0 .4 0 .6-.1v1.2c-.1 0-.5.1-1 .1-1.2 0-2-.8-2-2.1v-4h-1.4v-1.3h.4c.8 0 1.1-.5 1.1-1.1v-1.1h1.3v2.3zm5.6 7.2h-1.4v-10.9h1.4v4.5c.5-.8 1.4-1 2.2-1 1.7 0 2.6 1.2 2.6 2.8v4.6h-1.4v-4.3c0-1-.4-1.8-1.7-1.8-1.1 0-1.6.8-1.7 1.9v4.2zm7.5 2.4l-.9-.8c1.5-1.7 2.5-3.8 2.5-6.4s-1-4.7-2.5-6.4l.9-.8c1.6 1.6 2.8 3.9 2.8 7.2 0 3.3-1.2 5.6-2.8 7.2z"/><path class="st11" d="M573.8 153c-35-38.6-85.6-62.9-141.8-62.9-64.1 0-115.4 24.4-150.1 72.7"/></svg>